# xmcd CD database file
#
# Track frame offsets:
#	150
#	22618
#	45081
#	62892
#	85360
#
# Disc length: 1437 seconds
#
# Revision: 0
# Processed by: cddbd v1.5.1PL0 Copyright (c) Steve Scherf et al.
# Submitted via: CD2WAV32(EN) R3.19
#
DISCID=2d059b05
DTITLE=????&? - ???(?????)
DYEAR=1900
DGENRE=
TTITLE0=???(?????)
TTITLE1=Starry Sky
TTITLE2=queen of R
TTITLE3=???(?????) ?karaoke?
TTITLE4=Starry Sky ?karaoke?
EXTD=
EXTT0=
EXTT1=
EXTT2=
EXTT3=
EXTT4=
PLAYORDER=
